<svg id="Capa_1" enable-background="new 0 0 512 512" height="512" viewBox="0 0 512 512" width="512" xmlns="http://www.w3.org/2000/svg"><g><g><path d="m40.633 234.333h430.733v211.174h-430.733z" fill="#cfd7e6"/><path d="m448.367 234.333h23v211.174h-23z" fill="#b4c2db"/><g><path d="m487.933 475.5v-29.267c0-4.418-3.582-8-8-8h-447.866c-4.418 0-8 3.582-8 8v29.267z" fill="#f25a3c"/><path d="m479.933 438.233h-22.933c4.418 0 8 3.582 8 8v29.267h22.933v-29.267c0-4.418-3.581-8-8-8z" fill="#e63a3a"/></g><path d="m369.524 38.207-13.136 13.136c-3.235 3.235-3.235 8.48 0 11.714l13.136 13.136c5.218 5.218 1.522 14.14-5.857 14.14h-91.1l-16.567-33.133 16.567-33.133h91.1c7.379 0 11.075 8.922 5.857 14.14z" fill="#f25a3c"/><path d="m356.388 63.057c-3.235-3.235-3.235-8.479 0-11.714l13.136-13.136c5.218-5.218 1.522-14.141-5.857-14.141h-23c7.38 0 11.076 8.922 5.857 14.141l-13.136 13.136c-3.235 3.235-3.235 8.479 0 11.714l13.136 13.136c5.218 5.218 1.522 14.14-5.857 14.14h23c7.38 0 11.076-8.922 5.857-14.14z" fill="#e63a3a"/><path d="m496.208 239.433c5.86 0 9.867-5.919 7.691-11.36l-26.507-66.267c-1.258-3.145-4.304-5.207-7.691-5.207h-427.403c-3.387 0-6.433 2.062-7.691 5.207l-26.506 66.268c-2.176 5.441 1.831 11.36 7.691 11.36h480.416z" fill="#f25a3c"/><path d="m503.899 228.074-26.507-66.267c-1.258-3.145-4.304-5.207-7.691-5.207h-23c3.387 0 6.433 2.062 7.691 5.207l26.507 66.267c2.176 5.441-1.831 11.36-7.691 11.36h23c5.861-.001 9.868-5.919 7.691-11.36z" fill="#e63a3a"/><path d="m355.4 219.333v256.167h-198.8v-256.167l99.4-77z" fill="#f3f5f9"/><circle cx="256" cy="256" fill="#8db5ff" r="33.133"/><g><path d="m305.7 371.967v103.533h-99.4v-103.533l49.7-14.548z" fill="#b37059"/><path d="m282.7 365.235v110.265h23v-103.533z" fill="#995a4d"/><path d="m305.7 371.967v-25.133c0-4.418-3.582-8-8-8h-83.4c-4.418 0-8 3.582-8 8v25.133z" fill="#8db5ff"/><path d="m297.7 338.833h-23c4.418 0 8 3.582 8 8v25.133h23v-25.133c0-4.418-3.582-8-8-8z" fill="#7784ff"/></g><path d="m239.433 144.5v-128.717c0-4.575 3.709-8.283 8.283-8.283h16.567c4.575 0 8.283 3.709 8.283 8.283v128.717z" fill="#f3f5f9"/><g><path d="m396.533 388.533h33.7c4.418 0 8-3.582 8-8v-66.833c0-4.418-3.582-8-8-8h-33.7c-4.418 0-8 3.582-8 8v66.833c0 4.419 3.582 8 8 8z" fill="#8db5ff"/><path d="m430.233 305.7h-23c4.418 0 8 3.582 8 8v66.833c0 4.418-3.582 8-8 8h23c4.418 0 8-3.582 8-8v-66.833c0-4.418-3.581-8-8-8z" fill="#7784ff"/></g><path d="m256 222.867c-4.044 0-7.917.727-11.5 2.053 12.63 4.675 21.633 16.825 21.633 31.08s-9.004 26.405-21.633 31.08c3.583 1.326 7.456 2.053 11.5 2.053 18.299 0 33.133-14.834 33.133-33.133s-14.834-33.133-33.133-33.133z" fill="#7784ff"/><path d="m264.283 7.5h-16.567c-1.141 0-2.228.231-3.217.648 2.977 1.256 5.067 4.201 5.067 7.635v128.717h23v-128.717c.001-4.575-3.708-8.283-8.283-8.283z" fill="#cfd7e6"/><g><path d="m371.967 249.787-110.997-83.247c-2.945-2.209-6.995-2.209-9.94 0l-110.997 83.247c-3.66 2.745-8.852 2.003-11.597-1.657l-9.94-13.253c-2.745-3.66-2.003-8.852 1.657-11.597l130.877-98.158c2.945-2.209 6.995-2.209 9.94 0l130.876 98.158c3.66 2.745 4.401 7.937 1.657 11.597l-9.939 13.253c-2.745 3.66-7.937 4.402-11.597 1.657z" fill="#ff7f40"/></g><path d="m496.5 471.367h-481c-4.418 0-8 3.582-8 8v17.133c0 4.418 3.582 8 8 8h481c4.418 0 8-3.582 8-8v-17.133c0-4.419-3.582-8-8-8z" fill="#595353"/><path d="m496.5 471.367h-23c4.418 0 8 3.582 8 8v17.133c0 4.418-3.582 8-8 8h23c4.418 0 8-3.582 8-8v-17.133c0-4.419-3.582-8-8-8z" fill="#403939"/><g><path d="m81.767 388.533h33.7c4.418 0 8-3.582 8-8v-66.833c0-4.418-3.582-8-8-8h-33.7c-4.418 0-8 3.582-8 8v66.833c0 4.419 3.581 8 8 8z" fill="#8db5ff"/><path d="m115.467 305.7h-23c4.418 0 8 3.582 8 8v66.833c0 4.418-3.582 8-8 8h23c4.418 0 8-3.582 8-8v-66.833c0-4.418-3.582-8-8-8z" fill="#7784ff"/></g></g><g><path d="m496.5 463.867h-1.066v-17.633c0-8.547-6.953-15.5-15.5-15.5h-1.066v-183.8h17.342c5.244 0 10.13-2.593 13.069-6.935 2.941-4.342 3.532-9.842 1.585-14.71l-26.507-66.266c-2.411-6.027-8.163-9.922-14.654-9.922h-32.703c-4.143 0-7.5 3.358-7.5 7.5s3.357 7.5 7.5 7.5h32.702c.322 0 .608.193.727.493l26.507 66.267c.043.105.154.386-.078.729-.233.344-.535.344-.648.344h-93.694c.697-5.454-1.464-11.123-6.168-14.652l-70.909-53.182h81.228c4.143 0 7.5-3.358 7.5-7.5s-3.357-7.5-7.5-7.5h-100.967c-.083 0-.163.01-.245.012l-25.389-19.042v-32.236h83.601c6.406 0 12.13-3.825 14.582-9.743 2.451-5.919 1.108-12.671-3.422-17.201l-13.136-13.136c-.152-.152-.229-.338-.229-.554 0-.215.077-.401.23-.554l13.135-13.136c4.529-4.53 5.873-11.282 3.422-17.2-2.452-5.919-8.176-9.743-14.582-9.743h-83.601v-.784c0-8.703-7.08-15.783-15.783-15.783h-16.566c-8.703 0-15.784 7.08-15.784 15.783v114.288l-25.389 19.041c-.082-.003-.162-.012-.245-.012h-164.001c-6.492 0-12.244 3.895-14.654 9.921l-26.507 66.268c-1.948 4.869-1.355 10.368 1.584 14.71 2.94 4.342 7.826 6.935 13.07 6.935h17.342v183.8h-1.066c-8.547 0-15.5 6.953-15.5 15.5v17.633h-1.067c-8.547 0-15.5 6.953-15.5 15.5v17.133c0 8.547 6.953 15.5 15.5 15.5h43.267c4.142 0 7.5-3.358 7.5-7.5s-3.358-7.5-7.5-7.5h-43.267c-.276 0-.5-.224-.5-.5v-17.133c0-.276.224-.5.5-.5h481c.275 0 .5.224.5.5v17.133c0 .276-.225.5-.5.5h-407.733c-4.142 0-7.5 3.358-7.5 7.5s3.358 7.5 7.5 7.5h407.733c8.547 0 15.5-6.953 15.5-15.5v-17.133c0-8.547-6.953-15.5-15.5-15.5zm-32.633-33.134h-100.967v-178.371l4.566 3.425c2.761 2.071 6.047 3.16 9.438 3.16.751 0 1.508-.053 2.265-.162 4.175-.596 7.866-2.782 10.395-6.155l4.273-5.697h70.031v183.8zm-76.364-200.355-9.94 13.253c-.129.172-.302.275-.515.305-.212.031-.409-.02-.581-.149l-110.997-83.247c-2.788-2.091-6.129-3.136-9.47-3.136s-6.682 1.045-9.47 3.136l-110.997 83.248c-.346.259-.837.189-1.096-.157l-9.94-13.253c-.26-.346-.189-.838.156-1.098l130.876-98.157c.277-.208.665-.208.94 0l130.877 98.158c.346.259.416.751.157 1.097zm-23.836-198.811c.195 0 .523 0 .724.483.2.483-.032.715-.17.854h-.001l-13.134 13.135c-2.981 2.981-4.624 6.945-4.624 11.161s1.643 8.18 4.623 11.161l13.136 13.136c.139.138.37.37.17.854-.2.483-.528.483-.724.483h-83.601v-51.267zm-115.95-16.567h16.566c.432 0 .783.352.783.783v8.284 66.267 28.513c-5.411-3.798-12.723-3.797-18.133 0v-103.064c0-.431.352-.783.784-.783zm-232.574 216.589c-.233-.344-.121-.624-.079-.729l26.507-66.267c.12-.299.405-.492.727-.492h144.263l-70.908 53.181c-4.704 3.528-6.865 9.197-6.168 14.652h-93.694c-.113-.001-.415-.001-.648-.345zm32.99 15.344h70.03l4.274 5.698c5.222 6.962 15.134 8.378 22.096 3.157l4.567-3.425v178.371h-100.967zm-16.566 199.3c0-.276.224-.5.5-.5h117.033v18.133h-117.533zm132.533-202.762c0-.739-.111-1.451-.31-2.126l91.74-68.805c.277-.207.665-.206.94 0l91.741 68.805c-.199.675-.31 1.387-.31 2.126v220.395h-34.7v-117.033c0-8.547-6.953-15.5-15.5-15.5h-83.4c-8.547 0-15.5 6.953-15.5 15.5v117.033h-34.7v-220.395zm49.7 120.996v-17.633c0-.276.224-.5.5-.5h83.4c.275 0 .5.224.5.5v17.633zm0 15h34.7v84.4h-34.7zm49.7 84.4v-84.4h34.7v84.4zm99.4 0v-18.133h117.033c.275 0 .5.224.5.5v17.633z"/><path d="m256 296.633c22.405 0 40.633-18.228 40.633-40.633s-18.228-40.633-40.633-40.633-40.633 18.228-40.633 40.633 18.228 40.633 40.633 40.633zm0-66.266c14.134 0 25.633 11.499 25.633 25.633s-11.499 25.633-25.633 25.633-25.633-11.499-25.633-25.633 11.499-25.633 25.633-25.633z"/><path d="m115.467 298.2h-33.7c-8.547 0-15.5 6.953-15.5 15.5v66.833c0 8.547 6.953 15.5 15.5 15.5h33.7c8.547 0 15.5-6.953 15.5-15.5v-66.833c0-8.547-6.953-15.5-15.5-15.5zm-33.7 15h33.7c.276 0 .5.224.5.5v17.633h-34.7v-17.633c0-.276.224-.5.5-.5zm33.7 67.833h-33.7c-.276 0-.5-.224-.5-.5v-34.2h34.7v34.2c0 .276-.224.5-.5.5z"/><path d="m381.033 313.7v66.833c0 8.547 6.953 15.5 15.5 15.5h33.7c8.547 0 15.5-6.953 15.5-15.5v-66.833c0-8.547-6.953-15.5-15.5-15.5h-33.7c-8.547 0-15.5 6.953-15.5 15.5zm49.2 67.333h-33.7c-.275 0-.5-.224-.5-.5v-34.2h34.7v34.2c0 .276-.224.5-.5.5zm.5-67.333v17.633h-34.7v-17.633c0-.276.225-.5.5-.5h33.7c.276 0 .5.224.5.5z"/></g></g></svg>