<svg width="460" height="460" viewBox="0 0 460 460" fill="none" xmlns="http://www.w3.org/2000/svg">
<path d="M153.463 413V280.586H157.77H214L112 173L10 280.586H66.2309H70.5367V413H153.463Z" fill="#FFBF00"/>
<path d="M377 413V141.749H382.192H450L327 36L204 141.749H271.808H276.999V413H377Z" fill="#FFBF00"/>
<path d="M278.541 423H154.874C150.2 423 146.411 418.908 146.411 413.863V275.53C146.411 270.484 150.2 266.393 154.874 266.393H196.223L112.559 176.059L28.8962 266.392H70.244C74.9184 266.392 78.7066 270.484 78.7066 275.529V413.861C78.7066 418.907 74.9176 422.998 70.244 422.998H8.46392C3.78948 422.998 0.000498252 418.906 0.000498252 413.861C0.000498252 408.815 3.78948 404.724 8.46392 404.724H61.7806V284.668H8.46392C5.04147 284.668 1.95509 282.442 0.644693 279.028C-0.665706 275.613 0.0589076 271.683 2.47824 269.07L106.573 156.676C109.878 153.108 115.236 153.108 118.542 156.676L222.636 269.07C225.057 271.683 225.78 275.613 224.47 279.028C223.16 282.442 220.074 284.668 216.651 284.668H163.334V404.724H270.075V313.347C270.075 308.301 273.864 304.209 278.537 304.209C283.211 304.209 287 308.301 287 313.347V413.863C287.004 418.908 283.215 423 278.541 423Z" fill="black"/>
<path d="M277.048 295.053C274.409 295.053 271.839 293.983 269.98 292.123C268.11 290.273 267.051 287.694 267.051 285.056C267.051 282.427 268.111 279.847 269.98 277.988C271.839 276.128 274.409 275.059 277.048 275.059C279.677 275.059 282.257 276.128 284.116 277.988C285.976 279.848 287.045 282.427 287.045 285.056C287.045 287.695 285.975 290.265 284.116 292.123C282.257 293.982 279.678 295.053 277.048 295.053Z" fill="black"/>
<path d="M449.874 423H377C371.477 423 367.001 419.216 367.001 414.551V148.381C367.001 143.715 371.478 139.932 377 139.932H425.858L327 56.3998L228.142 139.932H277.001C282.524 139.932 287 143.716 287 148.381V256.116C287 260.782 282.523 264.565 277.001 264.565C271.478 264.565 267.001 260.782 267.001 256.116V156.831H204.001C199.957 156.831 196.31 154.772 194.762 151.616C193.213 148.458 194.07 144.824 196.928 142.407L319.929 38.4741C323.834 35.1753 330.165 35.1753 334.071 38.4741L457.071 142.406C459.931 144.823 460.786 148.457 459.238 151.615C457.69 154.772 454.044 156.831 449.999 156.831H386.999V406.1H449.873C455.396 406.1 459.872 409.883 459.872 414.549C459.874 419.216 455.397 423 449.874 423Z" fill="black"/>
<path d="M66.971 423.192C61.449 423.192 56.974 418.715 56.974 413.195V336.872C56.974 331.351 61.45 326.875 66.971 326.875C72.492 326.875 76.968 331.352 76.968 336.872V413.195C76.968 418.715 72.492 423.192 66.971 423.192Z" fill="black"/>
<path d="M183.997 211.124C178.475 211.124 174 206.647 174 201.127V200.997C174 195.476 178.476 191 183.997 191C189.518 191 193.994 195.477 193.994 200.997V201.127C193.994 206.648 189.518 211.124 183.997 211.124Z" fill="black"/>
<path d="M68.7 30V34.65C68.7 36.25 68.4 37.35 67.8 37.95C67.3 38.45 66.25 38.7 64.65 38.7H46.65V130.95C46.65 132.55 46.35 133.65 45.75 134.25C45.25 134.75 44.2 135 42.6 135H34.65V38.7H12.9V34.05C12.9 32.45 13.15 31.4 13.65 30.9C14.25 30.3 15.35 30 16.95 30H68.7ZM74.1141 73.05C74.1141 67.85 75.1641 64.2 77.2641 62.1C79.4641 59.9 83.1641 58.8 88.3641 58.8H109.364C114.564 58.8 118.214 59.9 120.314 62.1C122.514 64.2 123.614 67.85 123.614 73.05V120.75C123.614 125.95 122.514 129.65 120.314 131.85C118.214 133.95 114.564 135 109.364 135H88.3641C83.1641 135 79.4641 133.95 77.2641 131.85C75.1641 129.65 74.1141 125.95 74.1141 120.75V73.05ZM93.1641 67.5C90.0641 67.5 88.1141 68.15 87.3141 69.45C86.5141 70.75 86.1141 72.95 86.1141 76.05V117.75C86.1141 120.85 86.5141 123.05 87.3141 124.35C88.1141 125.65 90.0641 126.3 93.1641 126.3H104.564C107.664 126.3 109.614 125.65 110.414 124.35C111.214 123.05 111.614 120.85 111.614 117.75V76.05C111.614 72.95 111.214 70.75 110.414 69.45C109.614 68.15 107.664 67.5 104.564 67.5H93.1641ZM178.072 58.8C183.272 58.8 186.922 59.9 189.022 62.1C191.222 64.2 192.322 67.85 192.322 73.05V120.75C192.322 125.95 191.222 129.65 189.022 131.85C186.922 133.95 183.272 135 178.072 135H163.822C160.922 135 158.822 134.3 157.522 132.9C156.322 131.4 155.422 129.2 154.822 126.3V161.1C154.822 162.7 154.522 163.75 153.922 164.25C153.422 164.85 152.372 165.15 150.772 165.15H142.822V62.85C142.822 61.25 143.072 60.2 143.572 59.7C144.172 59.1 145.272 58.8 146.872 58.8H154.822V126.3H173.272C176.372 126.3 178.322 125.65 179.122 124.35C179.922 123.05 180.322 120.85 180.322 117.75V76.05C180.322 72.95 179.922 70.75 179.122 69.45C178.322 68.15 176.372 67.5 173.272 67.5H160.822V62.85C160.822 61.25 161.022 60.2 161.422 59.7C161.922 59.1 162.972 58.8 164.572 58.8H178.072Z" fill="black"/>
</svg>
