<svg width="512" height="512" viewBox="0 0 512 512" fill="none" xmlns="http://www.w3.org/2000/svg">
<g clip-path="url(#clip0)">
<path d="M141.434 475.737C131.347 475.737 123.17 467.56 123.17 457.473V418.481C123.17 408.394 131.347 400.217 141.434 400.217C151.521 400.217 159.698 408.394 159.698 418.481V457.473C159.698 467.56 151.521 475.737 141.434 475.737Z" fill="white"/>
<path d="M159.701 418.479V457.474C159.701 467.556 151.523 475.734 141.431 475.734C138.104 475.734 134.987 474.842 132.301 473.279C137.763 470.132 141.431 464.229 141.431 457.475V418.48C141.431 413.439 139.387 408.879 136.079 405.572C134.957 404.45 133.684 403.467 132.301 402.676C134.987 401.113 138.104 400.221 141.431 400.221C146.482 400.221 151.042 402.265 154.349 405.573C157.657 408.878 159.701 413.438 159.701 418.479Z" fill="white"/>
<path d="M106.211 159.364V280.126C106.211 288.187 111.413 295.327 119.086 297.797L250.31 340.048C254.01 341.239 257.99 341.239 261.689 340.048L392.913 297.797C400.586 295.326 405.788 288.187 405.788 280.126V159.364H106.211Z" fill="#FFBF00"/>
<path d="M405.785 159.367V280.129C405.785 288.186 400.584 295.332 392.917 297.797L377.323 302.818C382.494 299.23 385.741 293.267 385.741 286.723V159.367H405.785Z" fill="#E7A90B"/>
<path d="M243.498 38.687L9.64399 132.321C6.80699 133.457 6.80699 137.473 9.64399 138.609L243.498 232.243C251.523 235.456 260.477 235.456 268.502 232.243L502.355 138.609C505.192 137.473 505.192 133.457 502.355 132.321L268.502 38.687C260.477 35.473 251.523 35.473 243.498 38.687Z" fill="#9C9C9C"/>
<path d="M502.354 138.612L268.497 232.245C260.48 235.452 251.52 235.452 243.503 232.245L233.782 228.357L457.918 138.613C460.754 137.47 460.754 133.462 457.918 132.319L233.782 42.574L243.503 38.686C251.52 35.469 260.48 35.469 268.497 38.686L502.354 132.319C505.19 133.461 505.19 137.47 502.354 138.612V138.612Z" fill="#838383"/>
<path d="M505.149 125.343L358.181 66.497C354.331 64.956 349.953 66.827 348.409 70.681C346.867 74.535 348.74 78.91 352.593 80.453L489.987 135.465L265.708 225.265C259.449 227.772 252.554 227.772 246.293 225.265L160.508 190.917L233.063 152.409C233.469 152.456 233.88 152.486 234.298 152.486H277.702C283.639 152.486 288.469 147.656 288.469 141.718V136.537C288.469 118.634 273.903 104.068 256 104.068C238.097 104.068 223.531 118.634 223.531 136.537V140.449L142.23 183.599L22.013 135.465L246.292 45.665C252.551 43.159 259.448 43.157 265.707 45.665L319.957 67.387C323.806 68.929 328.185 67.057 329.729 63.203C331.271 59.349 329.398 54.974 325.545 53.431L271.295 31.709C261.432 27.76 250.568 27.76 240.703 31.709L6.854 125.342C2.69 127.008 0.00100028 130.98 2.78818e-07 135.463C-0.000999721 139.947 2.688 143.921 6.851 145.587L98.695 182.361V280.127C98.695 291.492 105.964 301.468 116.782 304.952L133.918 310.469V393.821C123.358 397.046 115.654 406.879 115.654 418.481V457.473C115.654 471.689 127.219 483.254 141.435 483.254C155.651 483.254 167.216 471.689 167.216 457.473V418.481C167.216 406.88 159.512 397.046 148.952 393.821V315.309L168.844 321.714C172.8 322.988 177.03 320.816 178.302 316.863C179.574 312.911 177.403 308.677 173.452 307.405L148.953 299.517V202.483L240.706 239.221C245.639 241.195 250.821 242.182 256.002 242.182C261.184 242.182 266.366 241.194 271.298 239.221L398.274 188.38V280.127C398.274 284.941 395.195 289.168 390.612 290.644L259.389 332.894C257.173 333.608 254.829 333.607 252.616 332.895L206.187 317.946C202.233 316.674 198.001 318.845 196.729 322.796C195.457 326.748 197.628 330.982 201.579 332.254L248.009 347.204C250.623 348.045 253.312 348.465 256.002 348.465C258.692 348.465 261.381 348.044 263.996 347.203L395.22 304.952C406.038 301.468 413.307 291.491 413.307 280.127V182.361L505.151 145.587C509.314 143.92 512.004 139.947 512.003 135.463C511.999 130.98 509.31 127.008 505.149 125.343ZM238.564 136.536C238.564 126.921 246.386 119.1 256 119.1C265.614 119.1 273.436 126.922 273.436 136.536V137.452H238.563L238.564 136.536ZM152.182 418.481V457.473C152.182 463.399 147.361 468.221 141.434 468.221C135.507 468.221 130.686 463.399 130.686 457.473V418.481C130.686 412.555 135.507 407.733 141.434 407.733C147.361 407.733 152.182 412.555 152.182 418.481ZM121.39 290.644C116.807 289.168 113.728 284.941 113.728 280.127V188.38L133.918 196.464V294.677L121.39 290.644Z" fill="black"/>
<rect x="101.254" y="164.036" width="165" height="165" rx="58.5" transform="rotate(-68 101.254 164.036)" fill="#E6E6E6" stroke="#696969" stroke-width="5"/>
<path d="M140.669 150.342L140.659 85.6816C140.658 81.9884 142.628 78.575 145.827 76.7282L201.819 44.3886C205.017 42.5418 208.958 42.5409 212.157 44.3869L268.16 76.7077C271.358 78.5539 273.329 81.9664 273.33 85.6596L273.341 150.32C273.342 154.014 271.371 157.427 268.173 159.274L212.181 191.614C208.982 193.461 205.042 193.462 201.843 191.616L145.84 159.294C142.641 157.448 140.67 154.036 140.669 150.342Z" fill="#41479B"/>
<path d="M273.33 85.6599C273.329 81.9668 271.359 78.5543 268.16 76.708L212.157 44.3869C209.541 42.8723 207.046 43.0029 207 43.0029V115.072C207 116.69 205.689 118.001 204.071 118.001H140.664L140.67 150.342C140.671 154.036 142.641 157.448 145.84 159.294L201.843 191.616C205.042 193.462 208.983 193.461 212.181 191.614L268.174 159.274C271.372 157.427 273.342 154.014 273.341 150.321L273.33 85.6599Z" fill="#FF4B55"/>
<path d="M163.763 90.1777C163.763 87.2296 164.958 84.5604 166.889 82.6271L157.939 80.0668C157.42 79.9183 157.047 80.5634 157.435 80.939L164.133 87.4142L155.095 89.6735C154.571 89.8045 154.571 90.5495 155.095 90.6808L164.133 92.9404L157.435 99.4156C157.047 99.7912 157.419 100.436 157.939 100.288L166.889 97.7275C164.958 95.7951 163.763 93.1259 163.763 90.1777Z" fill="#F5F5F5"/>
<path d="M166.894 82.6224C168.826 80.6909 171.496 79.4961 174.444 79.4961C177.392 79.4961 180.062 80.6909 181.995 82.6224L184.555 73.6725C184.704 73.1531 184.059 72.7807 183.683 73.1692L177.208 79.8665L174.948 70.8287C174.817 70.3046 174.072 70.3046 173.941 70.8287L171.682 79.8665L165.206 73.1692C164.83 72.7807 164.185 73.1531 164.334 73.6725L166.894 82.6224Z" fill="#F5F5F5"/>
<path d="M181.995 97.7325C180.062 99.664 177.393 100.859 174.444 100.859C171.496 100.859 168.827 99.6638 166.893 97.7325L164.333 106.682C164.185 107.202 164.83 107.574 165.205 107.186L171.68 100.488L173.94 109.526C174.071 110.05 174.816 110.05 174.947 109.526L177.207 100.488L183.682 107.186C184.057 107.574 184.703 107.202 184.554 106.682L181.995 97.7325Z" fill="#F5F5F5"/>
<path d="M193.793 89.6738L184.756 87.4144L191.453 80.9393C191.842 80.5637 191.469 79.9186 190.95 80.0671L182 82.6273C183.931 84.5601 185.126 87.2293 185.126 90.178C185.126 93.1261 183.931 95.7954 182 97.7287L190.95 100.289C191.469 100.437 191.842 99.7923 191.453 99.4167L184.756 92.9407L193.793 90.681C194.317 90.5501 194.317 89.8051 193.793 89.6738Z" fill="#F5F5F5"/>
<path d="M174.445 98.6817C179.142 98.6817 182.95 94.874 182.95 90.1769C182.95 85.4798 179.142 81.672 174.445 81.672C169.748 81.672 165.94 85.4798 165.94 90.1769C165.94 94.874 169.748 98.6817 174.445 98.6817Z" fill="#F5F5F5"/>
</g>
<defs>
<clipPath id="clip0">
<rect width="512" height="512" fill="white"/>
</clipPath>
</defs>
</svg>
